<svg id="Layer_1" data-name="Layer 1" xmlns="http://www.w3.org/2000/svg" viewBox="0 0 512 512"><title>tree-glyph</title><path d="M37.33,500.32A10.67,10.67,0,0,1,26.67,511h-16a10.67,10.67,0,0,1,0-21.33h16A10.67,10.67,0,0,1,37.33,500.32Zm464-10.67h-16a10.67,10.67,0,0,0,0,21.33h16a10.67,10.67,0,1,0,0-21.33ZM96,489.65H64A10.67,10.67,0,0,0,64,511H96a10.67,10.67,0,0,0,0-21.33ZM205.44,217.76c26.39,3.81,45,9.43,60,14C286.26,238,300,242.12,322,239.09c23.7-3.29,39.36-12.51,52.49-22.36l-41-57.73h2.25a32,32,0,0,0,24.41-52.71L349.49,93.73a10.5,10.5,0,0,1-4.43.28c-35.59-5.4-75.74,2.3-108,8.48-5.57,1.06-10.91,2.09-16,3a130.82,130.82,0,0,1-23,2.09,115.61,115.61,0,0,1-38.46-6.47,10.58,10.58,0,0,1-2.36-1.21l-5.41,6.38A32,32,0,0,0,176.27,159h2.25L139.3,214.2A385.77,385.77,0,0,1,205.44,217.76ZM217.33,84.49c5-.89,10.23-1.9,15.71-2.95,28.75-5.51,63.48-12.12,97.3-10.37l-50-58.88a32,32,0,0,0-48.79,0L171.94,82.62A100,100,0,0,0,217.33,84.49Zm-50.81,272.1c36.73,1.18,57.32,6.7,77.23,12,14.81,4,28.8,7.72,49.09,9.32,47.93,3.78,80.73-8.44,109.27-20.29l-39.53-60.48h7.07a32,32,0,0,0,26.09-50.55h0l-8.88-12.51c-14.8,11-33.74,22.19-61.93,26.1a124.44,124.44,0,0,1-17,1.21c-17.77,0-31.82-4.24-48.59-9.3-15.06-4.54-32.12-9.68-56.93-13.26a369.14,369.14,0,0,0-78.79-2.6l-7.36,10.35a32,32,0,0,0,26.09,50.55h7.06L109.14,358.8A416.07,416.07,0,0,1,166.52,356.59ZM448,489.65H298.67v-48h99.2a32,32,0,0,0,26.74-49.57L414,375.82C387.41,386.94,355.13,400,310.2,400c-6.11,0-12.44-.24-19-.76-22.24-1.77-37.84-5.95-52.93-10-18.74-5-38.12-10.22-72.4-11.32a394.94,394.94,0,0,0-72.05,4.39l-6.37,9.75a32,32,0,0,0,26.73,49.6h99.2v48h-80a10.67,10.67,0,0,0,0,21.33H448a10.67,10.67,0,0,0,0-21.33Z"/></svg>