<svg version="1.1" id="Layer_1" xmlns="http://www.w3.org/2000/svg" xmlns:xlink="http://www.w3.org/1999/xlink" x="0px" y="0px" viewBox="0 0 510.2 510.2" style="enable-background:new 0 0 510.2 510.2;" xml:space="preserve"><g><path d="M469.7,247.8c-6.9,0.5-10-2-13.4-8.2c-6.8-11.9-14.7-23.2-23.5-33.7c-4.4-5.4-7.2-10.5-7.8-17.5 c-0.6-7.1-3.1-28.7-6.7-60.4l-57,15.6c0,0-3.4,12.9-9.1,13.9c-1.3,0.2-3.1-0.1-5.4-2.1c-22.5-6.5-75-18.3-134.3,2.2 c-18.9,6.5-77.8,27.2-104.2,81.9c-4.6,9.5-8,19.5-9.9,29.9c-14.4,0.7-31.4,0.7-44-1.5c-3.6-0.5-7-1.8-10-3.8 c-3.5-2.5-8.1-7.5-10.1-17.5c-1.2-6-2.1-17.4,5.7-26.4c10-11.5,25.7-9.4,26.3-9.3c5.2,1,10.2-2.4,11.2-7.7S75,193,69.8,192 c-0.3,0-0.5-0.1-0.8-0.1c-2.7-0.4-27.1-3.4-43.6,15.7c-9.7,11.3-13.3,26.4-10,42.7s11.6,25,17.9,29.4c5.3,3.6,11.3,6,17.7,7 c9.3,1.7,20.3,2.2,31.3,2.2c4.9,0,9.7-0.1,14.4-0.3c0.3,23.2,8.8,45.5,24.6,66.8c7.1,9.5,16.3,17.4,24.8,25.7 c2.7,2.6,4,4.5,3.3,8.7c-3.3,18-6,36.2-9.1,55.1c13.7,2.3,27,4.4,40.3,6.7c6.9,1.2,13.8,2.7,20.7,4.1h4.2c2.1-13,4.3-26.1,6.5-39.7 c48.2,14.1,95.5,13.8,143.1-0.6l6.6,40.3h4.2c15.3-2.7,30.7-5.5,46-8.2c4.7-0.9,9.5-1.7,15.1-2.6c-2.1-13.2-3.4-26.2-6.5-38.8 c-3.7-14.8-3.4-26.2,10.6-36.7c13.4-10.1,21.9-25.3,28.3-41c1.5-3.6,3.2-4.9,7-4.8c9.8,0.2,19.7,0.1,29.9,0.1v-76 C487.4,247.7,478.5,247.2,469.7,247.8z M364.6,279.4c-11.8,0-21.3-9.6-21.3-21.3c0-11.8,9.6-21.3,21.3-21.3 c11.8,0,21.3,9.5,21.3,21.3C385.9,269.8,376.4,279.3,364.6,279.4C364.6,279.4,364.6,279.4,364.6,279.4z"/><path d="M203.1,130.4c25.4-8.7,52-13.1,78.8-13c16.4,0,32.9,1.6,49,4.7l2.4-0.6c-2.3-27-18.8-50.8-44.7-61.1c-6.4-2.6-13.3-3.9-19.9-5.9h-16.8c-7.7,2.4-15.9,3.9-23.1,7.3c-28.7,13.5-45.7,44.6-41.6,74.6C192.4,134.3,197.6,132.2,203.1,130.4z"/></g></svg>
