<?xml version="1.0" encoding="utf-8"?>
<!-- Generator: Adobe Illustrator 25.4.1, SVG Export Plug-In . SVG Version: 6.00 Build 0)  -->
<svg version="1.1" id="Layer_1" xmlns="http://www.w3.org/2000/svg" xmlns:xlink="http://www.w3.org/1999/xlink" x="0px" y="0px"
	 viewBox="0 0 510.2 510.2" style="enable-background:new 0 0 510.2 510.2;" xml:space="preserve">
<g>
	<path d="M171.9,155.1C199.6,256,227,356.2,254.4,456.4c0.4-0.1,0.9-0.1,1.3-0.2c27.5-100.2,54.9-200.5,82.5-301.1
		C282.6,155.1,227.9,155.1,171.9,155.1z"/>
	<path d="M166.2,159.9c-1.2-4.4-3.3-5.1-7.3-5.1c-33.7,0.1-67.4,0.1-101.1,0.1c-13.9,0-27.9,0-43.7,0
		C91,252.3,166.8,348.4,242.6,444.4c0.9-1.6,0.7-2.5,0.4-3.4C217.4,347.4,191.7,253.7,166.2,159.9z"/>
	<path d="M352.8,154.7c-5.8,0-7.8,1.8-9.3,7.2c-22.4,82.5-45.1,165-67.7,247.5c-3.1,11.5-6.3,23-9.4,34.5c0.4,0.2,0.7,0.4,1.1,0.6
		c75.8-96.1,151.7-192.3,228.4-289.6c-4,0-6.2,0-8.5,0C442.6,154.9,397.7,155,352.8,154.7z"/>
	<path d="M169.6,147.6c57.2,0,113.8,0,170.9,0c0-1.4,0.1-2.2,0-2.9c-5.8-29-11.7-58-17.4-87c-0.7-3.8-3-3.8-5.9-3.8
		c-41.4,0-82.8,0.1-124.2,0c-3.7,0-5.4,0.8-6.2,4.8c-5.4,27.9-11.2,55.7-16.8,83.6C169.8,143.9,169.8,145.6,169.6,147.6z"/>
	<path d="M329.7,53.9c0.4,2.8,0.6,4.8,1,6.6c5.5,27.1,11.1,54.2,16.3,81.4c0.9,4.9,2.8,6.1,7.5,6.1c44.7-0.2,89.4-0.1,134.1-0.1
		c2,0,4,0,6.8,0c-1.1-2.1-1.5-3.1-2.1-4.1c-18.7-28.7-37.4-57.3-56-86.1c-2.1-3.3-4.8-3.8-8.3-3.8c-27.9,0.1-55.7,0-83.6,0
		C340.4,53.9,335.4,53.9,329.7,53.9z"/>
	<path d="M180.7,54.2c-2.6-0.1-4.3-0.3-6-0.3c-31,0-61.9,0.1-92.9-0.1c-4.7,0-7.4,1.5-9.9,5.4c-18,28-36.2,55.8-54.4,83.7
		c-0.9,1.3-1.5,2.8-2.6,4.8c49.4,0,97.9,0,146.9,0C168.1,116.7,174.3,85.8,180.7,54.2z"/>
</g>
</svg>
