<svg id="Layer_1" data-name="Layer 1" xmlns="http://www.w3.org/2000/svg" viewBox="0 0 512 512"><title>filled-globe-glyph</title><path d="M127.61,248.24H247.38V158.65H144.83a282.69,282.69,0,0,0-17.22,89.59Z" fill="#231f20"/><path d="M125.31,158.65H20.12A253.75,253.75,0,0,0,1.82,248.24H109.24a301.75,301.75,0,0,1,16.06-89.59Z" fill="#231f20"/><path d="M152.27,140.3h95.11V15.11c-22.33,18.06-67,62-95.11,125.19Z" fill="#231f20"/><path d="M179.94,59.45A357.88,357.88,0,0,1,239.61,0C146.95,5.88,67.77,61.4,28.38,140.3H132.21a336.18,336.18,0,0,1,47.73-80.85Z" fill="#231f20"/><path d="M384.39,248.24H264.63V158.65H367.18a281.71,281.71,0,0,1,17.22,89.59Z" fill="#231f20"/><path d="M386.7,158.65H491.89a253.89,253.89,0,0,1,18.3,89.59H402.77a301.65,301.65,0,0,0-16.08-89.59Z" fill="#231f20"/><path d="M359.75,140.3H264.63V15.11c22.32,18.06,67.05,62,95.12,125.19Z" fill="#231f20"/><path d="M332.06,59.45A357,357,0,0,0,272.41,0c92.66,5.88,171.84,61.4,211.2,140.3H379.81a336.47,336.47,0,0,0-47.75-80.85Z" fill="#231f20"/><path d="M127.61,263.75H247.38v89.6H144.83a282.67,282.67,0,0,1-17.22-89.6Z" fill="#231f20"/><path d="M125.31,353.35H20.12a253.82,253.82,0,0,1-18.31-89.6H109.24a301.7,301.7,0,0,0,16.06,89.6Z" fill="#231f20"/><path d="M152.27,371.69h95.11V496.88c-22.33-18-67-62-95.11-125.18Z" fill="#231f20"/><path d="M179.94,452.56A358.07,358.07,0,0,0,239.61,512c-92.66-5.87-171.83-61.42-211.22-140.31H132.21a336.71,336.71,0,0,0,47.73,80.87Z" fill="#231f20"/><path d="M384.39,263.75H264.63v89.6H367.18a281.69,281.69,0,0,0,17.22-89.6Z" fill="#231f20"/><path d="M386.7,353.35H491.89a254,254,0,0,0,18.3-89.6H402.77a301.61,301.61,0,0,1-16.08,89.6Z" fill="#231f20"/><path d="M359.75,371.69H264.63V496.88c22.32-18,67.05-62,95.12-125.18Z" fill="#231f20"/><path d="M332.06,452.56A357.24,357.24,0,0,1,272.41,512c92.66-5.87,171.84-61.42,211.2-140.31H379.81a337,337,0,0,1-47.75,80.87Z" fill="#231f20"/></svg>