<svg version="1.1" id="Layer_1" xmlns="http://www.w3.org/2000/svg" xmlns:xlink="http://www.w3.org/1999/xlink" x="0px" y="0px" viewBox="0 0 425.2 425.2" style="enable-background:new 0 0 425.2 425.2;" xml:space="preserve"><style type="text/css">.st0{fill:#0D000F;}</style><g id="hammer-2"><path class="st0" d="M2.7,381.6l156.5-156.4c3.7-3.6,9.6-3.6,13.2,0l1.8,1.8l28.4-28.6l-25.9-25.9c-3.6-3.7-3.6-9.6,0-13.2 l80.5-80.5c3.7-3.6,9.6-3.6,13.2,0l75.9,75.9c3.6,3.7,3.6,9.6,0,13.2l-80.5,80.5c-3.7,3.6-9.6,3.6-13.2,0l-25.9-25.9l-28.4,28.4 l1.8,1.8c3.6,3.7,3.6,9.6,0,13.3L43.5,422.5c-3.7,3.6-9.6,3.6-13.2,0L2.9,395C-0.9,391.3-0.9,385.3,2.7,381.6z M152.1,166.4 c-3.7,3.6-9.6,3.6-13.2,0l-38.2-38.2c-3.6-3.7-3.6-9.6,0-13.2l112-112.2c3.7-3.6,9.6-3.6,13.2,0l38.2,38.2c3.6,3.7,3.6,9.6,0,13.2 L152.1,166.4z M310.2,324.5c-3.7,3.6-9.6,3.6-13.2,0l-37.8-37.8c-3.6-3.7-3.6-9.6,0-13.2l112.1-112.3c3.7-3.6,9.6-3.6,13.3,0 l37.8,37.8c3.6,3.7,3.6,9.6,0,13.2L310.2,324.5z"/></g></svg>
