<svg version="1.1" id="Layer_1" xmlns="http://www.w3.org/2000/svg" xmlns:xlink="http://www.w3.org/1999/xlink" x="0px" y="0px" viewBox="0 0 510.2 510.2" style="enable-background:new 0 0 510.2 510.2;" xml:space="preserve"><path d="M298.1,152h-85.7c-24.1,0-40.3,16.3-40.3,40.5c0,47.4,0,94.9,0,142.3c0,22.5,9.4,35.3,31.6,42.4v6.9c0,27.1,0,54.2,0,81.2 c0,20.2,10.4,30.6,30.8,30.6h40.3c21.5,0,31.6-10,31.6-31.5c0-27.5,0-54.9,0-82.4c0-2.4-0.9-4.8,3-6.1c19.2-6.3,28.6-19.6,28.6-39.9 c0-48,0-96,0-144C338.1,168.5,321.7,152,298.1,152z"/><path d="M255.1,135.4c33.5,0,60.7-27.1,60.7-60.5s-27.1-60.7-60.5-60.7s-60.7,27.1-60.7,60.5c0,0.1,0,0.2,0,0.3 C194.5,108.4,221.6,135.4,255.1,135.4C255,135.4,255,135.4,255.1,135.4z"/></svg>
